<?xml version="1.0" standalone="no"?>
<!DOCTYPE svg PUBLIC "-//W3C//DTD SVG 20010904//EN"
 "http://www.w3.org/TR/2001/REC-SVG-20010904/DTD/svg10.dtd">
<svg version="1.0" xmlns="http://www.w3.org/2000/svg"
 width="500.000000pt" height="500.000000pt" viewBox="0 0 500.000000 500.000000"
 preserveAspectRatio="xMidYMid meet">
<metadata>
Created by potrace 1.11, written by Peter Selinger 2001-2013
</metadata>
<g transform="translate(0.000000,500.000000) scale(0.100000,-0.100000)"
fill="#000000" stroke="none">
<path d="M1975 4779 c-33 -4 -98 -17 -145 -27 -47 -11 -123 -23 -170 -27 -82
-7 -88 -9 -204 -79 -75 -45 -155 -104 -218 -161 -84 -76 -110 -106 -162 -195
-35 -58 -106 -170 -158 -250 -52 -80 -125 -200 -161 -266 l-65 -122 -7 -129
-7 -129 26 -12 c34 -15 59 -15 74 0 16 16 23 7 29 -41 4 -32 12 -45 37 -60 17
-11 48 -37 68 -58 33 -34 39 -50 63 -158 17 -76 36 -133 51 -156 13 -19 24
-48 25 -65 0 -16 3 -23 6 -16 2 6 14 12 25 12 12 0 62 13 112 29 51 16 132 37
181 46 90 17 99 17 271 -10 23 -4 35 -14 48 -41 l17 -37 22 20 c32 30 120 56
159 48 29 -7 35 -3 67 34 33 38 49 46 196 97 159 55 161 55 290 57 85 1 146
-3 177 -12 l46 -13 177 86 c98 47 185 86 195 86 10 0 28 -8 40 -18 l23 -18
-134 -86 c-74 -46 -167 -104 -206 -128 -42 -24 -73 -49 -74 -59 -5 -127 -10
-165 -26 -177 -10 -7 -88 -35 -173 -63 -191 -61 -296 -74 -357 -42 -40 20
-100 79 -148 144 -16 21 -41 45 -57 53 -25 13 -35 13 -86 -2 -81 -23 -88 -32
-72 -89 11 -39 11 -47 -2 -58 -9 -7 -23 -35 -32 -63 -36 -111 -205 -186 -413
-184 l-101 1 9 -43 c15 -65 159 -351 233 -462 36 -54 66 -104 66 -110 0 -26
101 -171 185 -266 83 -94 90 -106 95 -152 8 -73 -24 -146 -94 -217 -46 -46
-72 -63 -148 -93 -51 -20 -118 -44 -148 -53 -30 -8 -104 -40 -165 -69 -233
-115 -614 -290 -710 -326 -55 -20 -167 -73 -248 -117 -144 -78 -151 -83 -223
-169 l-74 -88 0 -138 0 -138 2500 0 2500 0 0 389 0 388 -167 63 c-93 35 -247
101 -343 148 -96 47 -248 117 -337 156 -161 70 -165 73 -327 206 -143 118
-167 141 -185 185 -35 83 -112 178 -179 221 -33 21 -64 46 -67 54 -4 8 -11 69
-16 135 -4 66 -13 140 -19 163 -8 35 -7 54 6 96 16 50 16 57 -4 148 -25 117
-19 154 35 212 22 22 64 70 95 106 54 64 55 66 77 180 20 109 21 120 6 201
-14 83 -61 233 -130 414 -19 50 -48 146 -65 215 -30 127 -154 510 -182 565 -9
17 -54 86 -101 155 l-84 125 -199 58 c-180 52 -207 63 -279 112 -75 50 -87 54
-198 74 -120 22 -239 25 -362 10z m1330 -1451 c-4 -16 -25 -36 -62 -57 -52
-30 -57 -31 -79 -16 -13 8 -24 19 -24 23 0 8 162 82 168 77 2 -1 0 -14 -3 -27z"/>
</g>
</svg>
