<?xml version="1.0" standalone="no"?>
<!DOCTYPE svg PUBLIC "-//W3C//DTD SVG 20010904//EN"
 "http://www.w3.org/TR/2001/REC-SVG-20010904/DTD/svg10.dtd">
<svg version="1.0" xmlns="http://www.w3.org/2000/svg"
 width="700.000000pt" height="700.000000pt" viewBox="0 0 700.000000 700.000000"
 preserveAspectRatio="xMidYMid meet">
<metadata>
Created by potrace 1.11, written by Peter Selinger 2001-2013
</metadata>
<g transform="translate(0.000000,700.000000) scale(0.100000,-0.100000)"
fill="#000000" stroke="none">
<path d="M3278 6995 c-2 -1 -45 -5 -97 -9 -52 -4 -104 -8 -115 -11 -12 -2 -43
-7 -71 -10 -66 -7 -276 -46 -360 -66 -22 -5 -51 -12 -65 -15 -14 -3 -38 -9
-55 -14 -16 -6 -73 -23 -125 -39 -431 -134 -838 -350 -1185 -628 -103 -83
-364 -334 -449 -433 -57 -66 -205 -264 -257 -345 -123 -188 -245 -433 -317
-635 -76 -214 -123 -398 -148 -585 -3 -22 -7 -51 -10 -65 -18 -108 -26 -539
-11 -655 4 -27 9 -71 11 -98 28 -281 151 -688 295 -975 75 -150 221 -390 286
-470 7 -10 51 -64 97 -122 96 -122 348 -377 463 -470 112 -91 115 -94 114
-121 -1 -13 2 -197 5 -409 4 -212 9 -481 11 -598 2 -118 5 -215 7 -216 1 -2
165 85 363 194 385 210 478 261 565 308 52 28 73 39 216 118 l61 33 144 -33
c155 -36 301 -63 389 -71 89 -9 163 -16 200 -21 49 -6 474 -6 535 1 28 3 77 7
110 10 52 5 154 19 290 40 182 28 542 136 760 227 308 129 643 327 861 510
290 243 527 501 681 743 18 27 37 55 42 62 22 25 116 195 173 313 83 171 175
413 203 537 2 10 11 43 19 73 8 30 17 69 20 85 2 17 11 66 20 110 30 162 41
294 41 510 0 165 -10 368 -20 398 -2 6 -6 30 -9 52 -3 22 -10 65 -16 95 -6 30
-13 69 -16 85 -3 17 -14 66 -25 110 -108 427 -301 814 -589 1182 -107 137
-382 412 -525 526 -98 78 -366 267 -378 267 -3 0 -34 18 -69 39 -224 136 -574
281 -883 365 -81 22 -103 27 -170 40 -11 3 -40 9 -65 15 -25 5 -67 13 -95 17
-27 3 -59 8 -70 10 -21 5 -129 19 -225 30 -55 6 -556 14 -562 9z"/>
</g>
</svg>
