<svg width="16" height="16" viewBox="0 0 16 16" fill="none" xmlns="http://www.w3.org/2000/svg">
<path d="M13.8594 13.1313L10.5219 9.76251C11.175 8.94376 11.5688 7.90626 11.5688 6.77814C11.5688 4.13751 9.42813 1.99689 6.78438 1.99689C4.14063 1.99689 2 4.14064 2 6.78126C2 9.42189 4.14063 11.5625 6.78438 11.5625C7.92813 11.5625 8.975 11.1625 9.8 10.4938L13.1156 13.8406C13.2156 13.9469 13.3531 14 13.4875 14C13.6156 14 13.7438 13.9531 13.8406 13.8594C14.0469 13.6625 14.0531 13.3375 13.8594 13.1313ZM6.78438 10.5344C5.78125 10.5344 4.8375 10.1438 4.12813 9.43439C3.41875 8.72501 3.02813 7.78126 3.02813 6.78126C3.02813 5.77814 3.41875 4.83439 4.12813 4.12814C4.8375 3.41876 5.78125 3.02814 6.78438 3.02814C7.7875 3.02814 8.73125 3.41876 9.44063 4.12814C10.15 4.83751 10.5406 5.78126 10.5406 6.78126C10.5406 7.78439 10.15 8.72814 9.44063 9.43439C8.73125 10.1438 7.7875 10.5344 6.78438 10.5344Z" fill="#6F6F6F"/>
</svg>
